<svg width="32" height="32" viewBox="0 0 32 32" fill="none" xmlns="http://www.w3.org/2000/svg">
<path d="M29.6336 2.36479C29.3336 2.06484 28.9267 1.89633 28.5024 1.89633C28.0781 1.89633 27.6712 2.06484 27.3712 2.36479L2.368 27.3712C2.21518 27.5188 2.09329 27.6953 2.00944 27.8905C1.92558 28.0857 1.88145 28.2957 1.8796 28.5081C1.87775 28.7206 1.91824 28.9313 1.99869 29.1279C2.07913 29.3246 2.19794 29.5032 2.34817 29.6534C2.4984 29.8037 2.67704 29.9225 2.87367 30.0029C3.07031 30.0834 3.28099 30.1238 3.49344 30.122C3.70589 30.1201 3.91584 30.076 4.11105 29.9922C4.30625 29.9083 4.48281 29.7864 4.6304 29.6336L29.632 4.62719C29.932 4.32715 30.1005 3.92025 30.1005 3.49599C30.1005 3.07173 29.9336 2.66483 29.6336 2.36479ZM4.9728 21.5968L9.0688 17.5008C8.95228 17.0089 8.89163 16.5055 8.888 16C8.888 12.1936 12.072 9.10559 16 9.10559C16.4576 9.10559 16.9024 9.15679 17.336 9.23679L19.2608 7.31359C18.1827 7.13744 17.0924 7.04649 16 7.04159C5.504 7.03999 0 14.7696 0 16C0 16.6768 1.6912 19.3456 4.9728 21.5968ZM27.032 10.408L22.9328 14.504C23.0432 14.9872 23.1104 15.4848 23.1104 16C23.1104 19.8064 19.928 22.8912 16 22.8912C15.5456 22.8912 15.104 22.84 14.6736 22.7616L12.7472 24.6864C13.7744 24.8528 14.8528 24.9584 16 24.9584C26.496 24.9584 32 17.2256 32 16C32 15.3216 30.3104 12.656 27.032 10.408Z" fill="#191A1A"/>
</svg>
