<svg width="32" height="32" viewBox="0 0 32 32" fill="none" xmlns="http://www.w3.org/2000/svg">
<path d="M20.7958 15.998C20.7958 18.5401 18.6448 20.601 15.9913 20.601C13.3379 20.601 11.1868 18.5401 11.1868 15.998C11.1868 13.4558 13.3379 11.395 15.9913 11.395C18.6448 11.395 20.7958 13.4558 20.7958 15.998ZM16 6.41388C13.2527 6.42607 10.405 7.09489 7.70923 8.3754C5.70768 9.36532 3.75707 10.762 2.06384 12.4858C1.23221 13.3658 0.171493 14.64 0 15.9995C0.0202667 17.1771 1.28347 18.6307 2.06384 19.5132C3.65165 21.1693 5.55147 22.527 7.70923 23.6246C10.2231 24.8446 13.0057 25.5471 16 25.5861C18.7499 25.5737 21.597 24.8972 24.2898 23.6246C26.2913 22.6347 28.2429 21.237 29.9362 19.5132C30.7678 18.6332 31.8285 17.359 32 15.9995C31.9797 14.8219 30.7165 13.3683 29.9362 12.4858C28.3483 10.8296 26.4475 9.473 24.2898 8.37535C21.7772 7.15625 18.9878 6.45865 16 6.41388ZM15.998 8.79383C20.1611 8.79383 23.536 12.0203 23.536 16.0005C23.536 19.9807 20.1611 23.2072 15.998 23.2072C11.8348 23.2072 8.45997 19.9807 8.45997 16.0005C8.45997 12.0203 11.8348 8.79383 15.998 8.79383Z" fill="#191A1A"/>
</svg>
