<svg width="132" height="111" viewBox="0 0 132 111" fill="none" xmlns="http://www.w3.org/2000/svg">
<g filter="url(#filter0_d_245_95)">
<path d="M14.675 100V90.34H19.7C20.49 90.34 21.135 90.485 21.635 90.775C22.145 91.065 22.525 91.47 22.775 91.99C23.025 92.5 23.15 93.095 23.15 93.775C23.15 94.425 22.985 95 22.655 95.5C22.335 95.99 21.905 96.365 21.365 96.625C21.475 96.715 21.57 96.825 21.65 96.955C21.73 97.075 21.82 97.245 21.92 97.465L23.03 100H20.09L19.07 97.675C18.99 97.495 18.89 97.37 18.77 97.3C18.66 97.22 18.5 97.18 18.29 97.18H17.495V100H14.675ZM17.495 95.02H18.98C19.39 95.02 19.705 94.915 19.925 94.705C20.155 94.485 20.27 94.175 20.27 93.775C20.27 92.925 19.87 92.5 19.07 92.5H17.495V95.02ZM23.8965 89.14V87.46H28.8165V89.14H23.8965ZM24.9465 100V90.34H27.7665V100H24.9465ZM34.8513 100.15C33.1313 100.15 31.8213 99.73 30.9213 98.89C30.0213 98.04 29.5713 96.83 29.5713 95.26C29.5713 93.64 30.0363 92.39 30.9663 91.51C31.8963 90.63 33.2563 90.19 35.0463 90.19C35.6463 90.19 36.1863 90.225 36.6663 90.295C37.1563 90.365 37.6163 90.47 38.0463 90.61V93.025C37.6063 92.855 37.1513 92.74 36.6813 92.68C36.2113 92.62 35.7313 92.59 35.2413 92.59C34.3113 92.59 33.6113 92.8 33.1413 93.22C32.6813 93.64 32.4513 94.32 32.4513 95.26C32.4513 96.14 32.6513 96.775 33.0513 97.165C33.4613 97.555 34.0613 97.75 34.8513 97.75C35.1113 97.75 35.3563 97.735 35.5863 97.705C35.8163 97.665 36.0313 97.615 36.2313 97.555V96.145H34.3113V94.405H38.5863V99.265C38.2163 99.495 37.7213 99.7 37.1013 99.88C36.4913 100.06 35.7413 100.15 34.8513 100.15ZM40.0918 100L43.7968 90.34H46.7818L50.4868 100H47.5468L46.7368 97.945H43.8268L43.0318 100H40.0918ZM44.2018 95.92H46.3618L45.2818 93.085L44.2018 95.92ZM55.0734 100.15C54.4234 100.15 53.8084 100.1 53.2284 100C52.6484 99.89 52.1534 99.74 51.7434 99.55V97.225C52.1934 97.435 52.6934 97.605 53.2434 97.735C53.7934 97.865 54.3084 97.93 54.7884 97.93C55.2884 97.93 55.6634 97.89 55.9134 97.81C56.1734 97.72 56.3034 97.525 56.3034 97.225C56.3034 97.015 56.2284 96.85 56.0784 96.73C55.9384 96.61 55.7134 96.5 55.4034 96.4C55.1034 96.3 54.7084 96.175 54.2184 96.025C53.5684 95.815 53.0534 95.585 52.6734 95.335C52.2934 95.085 52.0184 94.78 51.8484 94.42C51.6884 94.06 51.6084 93.62 51.6084 93.1C51.6084 92.15 51.9434 91.43 52.6134 90.94C53.2934 90.44 54.2984 90.19 55.6284 90.19C56.1584 90.19 56.7034 90.235 57.2634 90.325C57.8334 90.415 58.2934 90.515 58.6434 90.625V92.965C58.1734 92.775 57.7234 92.64 57.2934 92.56C56.8634 92.48 56.4584 92.44 56.0784 92.44C55.6384 92.44 55.2634 92.475 54.9534 92.545C54.6434 92.615 54.4884 92.795 54.4884 93.085C54.4884 93.335 54.6184 93.52 54.8784 93.64C55.1484 93.75 55.6234 93.895 56.3034 94.075C57.0934 94.285 57.6934 94.54 58.1034 94.84C58.5234 95.14 58.8084 95.49 58.9584 95.89C59.1084 96.28 59.1834 96.725 59.1834 97.225C59.1834 98.105 58.8434 98.815 58.1634 99.355C57.4834 99.885 56.4534 100.15 55.0734 100.15ZM64.8049 100V90.34H67.5499L69.9499 95.245L72.3349 90.34H75.0649V100H72.2449V95.17L70.6999 98.35H69.1849L67.6249 95.17V100H64.8049ZM77.1711 100V90.34H84.4911V92.5H79.9911V94.075H83.9361V96.265H79.9911V97.84H84.4911V100H77.1711ZM88.2539 100V92.44H85.5389V90.34H93.7889V92.44H91.0739V100H88.2539ZM95.2824 100V90.34H100.307C101.097 90.34 101.742 90.485 102.242 90.775C102.752 91.065 103.132 91.47 103.382 91.99C103.632 92.5 103.757 93.095 103.757 93.775C103.757 94.425 103.592 95 103.262 95.5C102.942 95.99 102.512 96.365 101.972 96.625C102.082 96.715 102.177 96.825 102.257 96.955C102.337 97.075 102.427 97.245 102.527 97.465L103.637 100H100.697L99.6774 97.675C99.5974 97.495 99.4974 97.37 99.3774 97.3C99.2674 97.22 99.1074 97.18 98.8974 97.18H98.1024V100H95.2824ZM98.1024 95.02H99.5874C99.9974 95.02 100.312 94.915 100.532 94.705C100.762 94.485 100.877 94.175 100.877 93.775C100.877 92.925 100.477 92.5 99.6774 92.5H98.1024V95.02ZM109.969 100.15C108.369 100.15 107.144 99.76 106.294 98.98C105.454 98.2 105.034 96.94 105.034 95.2C105.034 94 105.224 93.035 105.604 92.305C105.984 91.565 106.539 91.03 107.269 90.7C108.009 90.36 108.909 90.19 109.969 90.19C111.029 90.19 111.924 90.36 112.654 90.7C113.394 91.03 113.954 91.565 114.334 92.305C114.714 93.035 114.904 94 114.904 95.2C114.904 96.94 114.479 98.2 113.629 98.98C112.779 99.76 111.559 100.15 109.969 100.15ZM109.969 97.75C110.689 97.75 111.209 97.55 111.529 97.15C111.859 96.74 112.024 96.09 112.024 95.2C112.024 94.25 111.859 93.58 111.529 93.19C111.209 92.79 110.689 92.59 109.969 92.59C109.249 92.59 108.724 92.79 108.394 93.19C108.074 93.58 107.914 94.25 107.914 95.2C107.914 96.09 108.074 96.74 108.394 97.15C108.724 97.55 109.249 97.75 109.969 97.75Z" fill="#FEFEFE"/>
</g>
<g filter="url(#filter1_d_245_95)">
<path d="M51.5 53L60.5 37.5L66 45.5L71 37.5L79 53L66 77.5L51.5 53Z" fill="#FEFEFE"/>
<path d="M30.5 79.5H10L46 10.134L56.5 28.5L30.5 79.5Z" fill="#FEFEFE"/>
<path d="M101 79.366H121.5L85.5 10L75 28.366L101 79.366Z" fill="#FEFEFE"/>
</g>
<defs>
<filter id="filter0_d_245_95" x="4.67499" y="77.46" width="120.229" height="32.69" filterUnits="userSpaceOnUse" color-interpolation-filters="sRGB">
<feFlood flood-opacity="0" result="BackgroundImageFix"/>
<feColorMatrix in="SourceAlpha" type="matrix" values="0 0 0 0 0 0 0 0 0 0 0 0 0 0 0 0 0 0 127 0" result="hardAlpha"/>
<feOffset/>
<feGaussianBlur stdDeviation="5"/>
<feComposite in2="hardAlpha" operator="out"/>
<feColorMatrix type="matrix" values="0 0 0 0 0 0 0 0 0 0 0 0 0 0 0 0 0 0 0.25 0"/>
<feBlend mode="normal" in2="BackgroundImageFix" result="effect1_dropShadow_245_95"/>
<feBlend mode="normal" in="SourceGraphic" in2="effect1_dropShadow_245_95" result="shape"/>
</filter>
<filter id="filter1_d_245_95" x="0" y="0" width="131.5" height="89.5" filterUnits="userSpaceOnUse" color-interpolation-filters="sRGB">
<feFlood flood-opacity="0" result="BackgroundImageFix"/>
<feColorMatrix in="SourceAlpha" type="matrix" values="0 0 0 0 0 0 0 0 0 0 0 0 0 0 0 0 0 0 127 0" result="hardAlpha"/>
<feOffset/>
<feGaussianBlur stdDeviation="5"/>
<feComposite in2="hardAlpha" operator="out"/>
<feColorMatrix type="matrix" values="0 0 0 0 0 0 0 0 0 0 0 0 0 0 0 0 0 0 0.25 0"/>
<feBlend mode="normal" in2="BackgroundImageFix" result="effect1_dropShadow_245_95"/>
<feBlend mode="normal" in="SourceGraphic" in2="effect1_dropShadow_245_95" result="shape"/>
</filter>
</defs>
</svg>
