<svg width="202" height="167" viewBox="0 0 202 167" fill="none" xmlns="http://www.w3.org/2000/svg">
<g filter="url(#filter0_d_256_245)">
<path d="M19.4314 156.25V140.794H27.4714C28.7354 140.794 29.7674 141.026 30.5674 141.49C31.3834 141.954 31.9914 142.602 32.3914 143.434C32.7914 144.25 32.9914 145.202 32.9914 146.29C32.9914 147.33 32.7274 148.25 32.1994 149.05C31.6874 149.834 30.9994 150.434 30.1354 150.85C30.3114 150.994 30.4634 151.17 30.5914 151.378C30.7194 151.57 30.8634 151.842 31.0234 152.194L32.7994 156.25H28.0954L26.4634 152.53C26.3354 152.242 26.1754 152.042 25.9834 151.93C25.8074 151.802 25.5514 151.738 25.2154 151.738H23.9434V156.25H19.4314ZM23.9434 148.282H26.3194C26.9754 148.282 27.4794 148.114 27.8314 147.778C28.1994 147.426 28.3834 146.93 28.3834 146.29C28.3834 144.93 27.7434 144.25 26.4634 144.25H23.9434V148.282ZM34.1858 138.874V136.186H42.0578V138.874H34.1858ZM35.8658 156.25V140.794H40.3778V156.25H35.8658ZM51.7134 156.49C48.9614 156.49 46.8654 155.818 45.4254 154.474C43.9854 153.114 43.2654 151.178 43.2654 148.666C43.2654 146.074 44.0094 144.074 45.4974 142.666C46.9854 141.258 49.1614 140.554 52.0254 140.554C52.9854 140.554 53.8494 140.61 54.6174 140.722C55.4014 140.834 56.1374 141.002 56.8254 141.226V145.09C56.1214 144.818 55.3934 144.634 54.6414 144.538C53.8894 144.442 53.1214 144.394 52.3374 144.394C50.8494 144.394 49.7294 144.73 48.9774 145.402C48.2414 146.074 47.8734 147.162 47.8734 148.666C47.8734 150.074 48.1934 151.09 48.8334 151.714C49.4894 152.338 50.4494 152.65 51.7134 152.65C52.1294 152.65 52.5214 152.626 52.8894 152.578C53.2574 152.514 53.6014 152.434 53.9214 152.338V150.082H50.8494V147.298H57.6894V155.074C57.0974 155.442 56.3054 155.77 55.3134 156.058C54.3374 156.346 53.1374 156.49 51.7134 156.49ZM60.0983 156.25L66.0263 140.794H70.8023L76.7303 156.25H72.0263L70.7303 152.962H66.0743L64.8023 156.25H60.0983ZM66.6743 149.722H70.1303L68.4023 145.186L66.6743 149.722ZM84.0688 156.49C83.0288 156.49 82.0448 156.41 81.1168 156.25C80.1888 156.074 79.3968 155.834 78.7408 155.53V151.81C79.4608 152.146 80.2608 152.418 81.1408 152.626C82.0208 152.834 82.8448 152.938 83.6128 152.938C84.4128 152.938 85.0128 152.874 85.4128 152.746C85.8288 152.602 86.0368 152.29 86.0368 151.81C86.0368 151.474 85.9168 151.21 85.6768 151.018C85.4528 150.826 85.0928 150.65 84.5968 150.49C84.1168 150.33 83.4848 150.13 82.7008 149.89C81.6608 149.554 80.8368 149.186 80.2288 148.786C79.6208 148.386 79.1808 147.898 78.9088 147.322C78.6528 146.746 78.5248 146.042 78.5248 145.21C78.5248 143.69 79.0608 142.538 80.1328 141.754C81.2208 140.954 82.8288 140.554 84.9568 140.554C85.8048 140.554 86.6768 140.626 87.5728 140.77C88.4848 140.914 89.2208 141.074 89.7808 141.25V144.994C89.0288 144.69 88.3088 144.474 87.6208 144.346C86.9328 144.218 86.2848 144.154 85.6768 144.154C84.9728 144.154 84.3728 144.21 83.8768 144.322C83.3808 144.434 83.1328 144.722 83.1328 145.186C83.1328 145.586 83.3408 145.882 83.7568 146.074C84.1888 146.25 84.9488 146.482 86.0368 146.77C87.3008 147.106 88.2608 147.514 88.9168 147.994C89.5888 148.474 90.0448 149.034 90.2848 149.674C90.5248 150.298 90.6448 151.01 90.6448 151.81C90.6448 153.218 90.1008 154.354 89.0128 155.218C87.9248 156.066 86.2768 156.49 84.0688 156.49ZM99.6392 156.25V140.794H104.031L107.871 148.642L111.687 140.794H116.055V156.25H111.543V148.522L109.071 153.61H106.647L104.151 148.522V156.25H99.6392ZM119.425 156.25V140.794H131.137V144.25H123.937V146.77H130.249V150.274H123.937V152.794H131.137V156.25H119.425ZM137.158 156.25V144.154H132.814V140.794H146.014V144.154H141.67V156.25H137.158ZM148.403 156.25V140.794H156.443C157.707 140.794 158.739 141.026 159.539 141.49C160.355 141.954 160.963 142.602 161.363 143.434C161.763 144.25 161.963 145.202 161.963 146.29C161.963 147.33 161.699 148.25 161.171 149.05C160.659 149.834 159.971 150.434 159.107 150.85C159.283 150.994 159.435 151.17 159.563 151.378C159.691 151.57 159.835 151.842 159.995 152.194L161.771 156.25H157.067L155.435 152.53C155.307 152.242 155.147 152.042 154.955 151.93C154.779 151.802 154.523 151.738 154.187 151.738H152.915V156.25H148.403ZM152.915 148.282H155.291C155.947 148.282 156.451 148.114 156.803 147.778C157.171 147.426 157.355 146.93 157.355 146.29C157.355 144.93 156.715 144.25 155.435 144.25H152.915V148.282ZM171.902 156.49C169.342 156.49 167.382 155.866 166.022 154.618C164.678 153.37 164.006 151.354 164.006 148.57C164.006 146.65 164.31 145.106 164.918 143.938C165.526 142.754 166.414 141.898 167.582 141.37C168.766 140.826 170.206 140.554 171.902 140.554C173.598 140.554 175.03 140.826 176.198 141.37C177.382 141.898 178.278 142.754 178.886 143.938C179.494 145.106 179.798 146.65 179.798 148.57C179.798 151.354 179.118 153.37 177.758 154.618C176.398 155.866 174.446 156.49 171.902 156.49ZM171.902 152.65C173.054 152.65 173.886 152.33 174.398 151.69C174.926 151.034 175.19 149.994 175.19 148.57C175.19 147.05 174.926 145.978 174.398 145.354C173.886 144.714 173.054 144.394 171.902 144.394C170.75 144.394 169.91 144.714 169.382 145.354C168.87 145.978 168.614 147.05 168.614 148.57C168.614 149.994 168.87 151.034 169.382 151.69C169.91 152.33 170.75 152.65 171.902 152.65Z" fill="white"/>
</g>
<g filter="url(#filter1_d_256_245)">
<path d="M77.4365 79.875L92.0615 54.6875L100.999 67.6875L109.124 54.6875L122.124 79.875L100.999 119.687L77.4365 79.875Z" fill="#FEFEFE"/>
<path d="M43.3124 122.937H10L68.4999 10.2177L85.5623 40.0625L43.3124 122.937Z" fill="#9D2235"/>
<path d="M157.875 122.72H191.188L132.688 10L115.625 39.8448L157.875 122.72Z" fill="#9D2235"/>
</g>
<defs>
<filter id="filter0_d_256_245" x="9.43164" y="126.186" width="180.366" height="40.304" filterUnits="userSpaceOnUse" color-interpolation-filters="sRGB">
<feFlood flood-opacity="0" result="BackgroundImageFix"/>
<feColorMatrix in="SourceAlpha" type="matrix" values="0 0 0 0 0 0 0 0 0 0 0 0 0 0 0 0 0 0 127 0" result="hardAlpha"/>
<feOffset/>
<feGaussianBlur stdDeviation="5"/>
<feComposite in2="hardAlpha" operator="out"/>
<feColorMatrix type="matrix" values="0 0 0 0 0 0 0 0 0 0 0 0 0 0 0 0 0 0 0.25 0"/>
<feBlend mode="normal" in2="BackgroundImageFix" result="effect1_dropShadow_256_245"/>
<feBlend mode="normal" in="SourceGraphic" in2="effect1_dropShadow_256_245" result="shape"/>
</filter>
<filter id="filter1_d_256_245" x="0" y="0" width="201.188" height="132.938" filterUnits="userSpaceOnUse" color-interpolation-filters="sRGB">
<feFlood flood-opacity="0" result="BackgroundImageFix"/>
<feColorMatrix in="SourceAlpha" type="matrix" values="0 0 0 0 0 0 0 0 0 0 0 0 0 0 0 0 0 0 127 0" result="hardAlpha"/>
<feOffset/>
<feGaussianBlur stdDeviation="5"/>
<feComposite in2="hardAlpha" operator="out"/>
<feColorMatrix type="matrix" values="0 0 0 0 0 0 0 0 0 0 0 0 0 0 0 0 0 0 0.25 0"/>
<feBlend mode="normal" in2="BackgroundImageFix" result="effect1_dropShadow_256_245"/>
<feBlend mode="normal" in="SourceGraphic" in2="effect1_dropShadow_256_245" result="shape"/>
</filter>
</defs>
</svg>
